<svg xmlns="http://www.w3.org/2000/svg" xml:space="preserve" viewBox="0 0 478.235 192.054">   <style>
        path {
            fill: white;
        }
        @media (prefers-color-scheme: dark) {
            fill: black;
        }
    </style>
  <circle cx="23.846" cy="90.879" r=".045" stroke="#000" stroke-width=".265"/>
  <circle cx="41.585" cy="62.82" r=".045" stroke="#000" stroke-width=".265"/>
  <path fill="#fff" d="M9.159 29.789c7.8-13.365 3.374-25.573 7.8-13.598 4.427 11.975 18.55 21.066 4.427 12.829-14.123-8.237-31.457-7.95-14.123-8.46 17.334-.51 31.09-10.393 16.641-.51m151.934 27.39c16.248-27.62.412-51.957 15.12-25.68 14.709 26.276 44.475 45.754 14.709 26.276C175.9 28.558 142.89 28.778 175.9 28.558c33.011-.22 68.438-26.754 33.011-.191-35.427 26.563-37.903 34.663-33.073 19.073zm107.847 50.484c17.44-34.942 3.948-68.522 17.537-35.642 13.588 32.88 44.454 53.87 13.775 32.953-30.68-20.916-69.788-21.503-31.794-21.994 37.995-.49 58.37-19.107 37.936-.662-20.435 18.445-21.297 18.152-21.297 18.152l-23.357 22.395zM79.453 28.248c11.7-18.967 3.054-38.192 12.465-19.03 9.41 19.161 30.642 35.58 9.41 19.161-21.23-16.42-49.918-18.006-21.517-17.16 28.4.845 59-15.417 28.532.845m281.169 135.553c27.07-44.498 2.106-98.052 26.64-43.658 24.535 54.395 86.418 94.772 24.7 54.395-61.717-40.378-129.32-39.321-60.75-39.71 68.57-.39 139.78-61.407 68.57-.39-71.208 61.017-79.822 92.814-70.097 61.677"/>
</svg>
